<svg xmlns:rdf="http://www.w3.org/1999/02/22-rdf-syntax-ns#" xmlns="http://www.w3.org/2000/svg" height="800" width="850" version="1.1" xmlns:cc="http://creativecommons.org/ns#" xmlns:dc="http://purl.org/dc/elements/1.1/" viewBox="0 0 849.99998 800.00001">
<g transform="translate(0 -252.4)">
<g fill="#39538d">
<path d="m100.3 992h-27.6v-50c0-9-2-14.1-18.1-14.1-12.5 0-20.5 5.5-20.5 15v49.1h-27.5v-84.6h27.5v7.1h.3c6.2-5.2 15.5-8.3 25.8-8.3 24.8 0 40 12.6 40 33.6v52.2z" class="st0"/>
<path d="m205 959.1h-71.9l2.6 2.3c4 6.4 12 11.5 22.4 11.5 9.2 0 16.2-2.4 22.7-7l15.6 14.7c-9.9 8.2-22.1 12.6-38.4 12.6-34.4 0-51.9-19-51.9-43 0-25.1 18.4-44.1 50.2-44.1 33 0 49.5 19.7 49.5 44.1-.1 2.6-.3 6.1-.8 8.9zm-26.7-19.9-2.4-2.3c-3.6-6.4-10.2-10.6-19.8-10.6s-16.2 4.3-19.9 10.6l-2.6 2.3h44.7z" class="st0"/>
<path d="m257.6 993.3c-33.1 0-49.8-19.2-49.8-43.6s16.6-43.6 49.8-43.6c33.3 0 49.9 19 49.9 43.6 0 24.3-16.9 43.6-49.9 43.6zm0-65.3c-15.5 0-22.2 8.3-22.2 21.7 0 13.3 6.9 21.9 22.4 21.9s22.2-8.4 22.2-21.9c0-13.2-6.9-21.7-22.4-21.7z" class="st0"/>
<path d="m403.6 992.1h-27.5v-4.2h-0.3c-6.2 3.2-15.6 5.5-25 5.5-16.9 0-41.2-5.6-41.2-28.2 0-24.9 37-27.7 59.2-27.7h8.9l-2.4-2.3c0-5.2-5.6-8.6-15.2-8.6-9.5 0-18.6 2.4-26.8 6.8l-16.5-15.3c11.3-7.4 27-11.9 43.9-11.9 28.5 0 42.9 12.9 42.9 34.7v51.2zm-25.1-35.4h-4.4c-3.9 0-6.7 0-11.6.1-4.6.3-9.5.5-13.8 1.3-9 1.7-11.6 4.4-11.6 7.6 0 3.5 5.2 7.1 15.8 7.1 6.6 0 23.2-.5 23.2-8v-5.7l2.4-2.4z" class="st0"/>
<path d="m473 928.6h-7.9c-16.9 0-24 7.6-24 21.6v41.8h-27.5v-84.5h27.5v10.1h.3c5.2-7.1 13.6-11 26-11h5.6v22z" class="st0"/>
<path d="m544.5 979.9c-10.2 8.7-18.6 13.4-31.6 13.4-21.9 0-32-10.1-32-30.4v-33.1l1.3-2.3h-14.1v-20h14.1l-1.3-2.3v-8.4l27.5-13.5v22l-1.3 2.3h27.7v20h-27.7l1.3 2.3v33c0 6.2 3.4 8.8 7.9 8.8 4.7 0 8.3-2 12.6-6.3l15.6 14.5z" class="st0"/>
<path d="m564.6 992h-16.8v-112.6h16.8v112.6z" class="st0"/>
<path d="m657.8 992h-16.8v-6.4h-.3c-7.7 5.8-17.6 7.9-27.4 7.9-18.4 0-38.7-6.4-38.7-26.7 0-26.4 36.9-28 59.7-28 2.3 0 6.7.1 8.5.3l-1.7-1.6c-.1-.3 0-1.5-.1-1.6-.9-11.3-10.5-15.4-22.9-15.4-9.2 0-19.5 1.9-27.4 8l-11-10.6c12.2-8.8 24.4-11.5 38.4-11.5 19.7 0 39.9 7.1 39.9 31.2v54.4zm-15.1-39.4c-1.6 0-5.6-.3-7.7-.3-4.2 0-9.2 0-14.3.3-5.2.3-10.6.9-15.3 2-8.6 2-14.1 5.8-14.1 12.2 0 10.1 13.1 12.6 22.1 12.6 8.5 0 27.7-1.7 27.7-12.6v-12.6l1.6-1.6z" class="st0"/>
<path d="m716.4 993.3c-11.6 0-21.1-3.4-27.3-9.7h-.3v8.3h-16.7v-112.5h16.8v37.1h.3c6.3-6.6 15.9-10.3 27.3-10.3 29 0 42.9 18.6 42.9 43.8-.1 25.1-14.3 43.3-43 43.3zm-1.2-72.9c-19.9 0-27.4 12.6-27.4 29.6 0 16.9 7.7 29.2 27.4 29.2 19.9 0 27.4-12.3 27.4-29.2-.1-16.9-7.7-29.6-27.4-29.6z" class="st0"/>
<path d="m805.4 993.4c-14.3 0-29.4-4-41-15l11.5-10.9c10.9 9 19.1 11.8 29.1 11.8 15.9 0 21.5-5.8 21.5-10.7 0-4.2-2.3-7.4-14.6-10.3-1.9-.4-14.1-3.6-16.1-4.2-15.8-4-28.8-9.9-28.8-23.7 0-13.1 12.6-24.3 37.4-24.3 14.3 0 26.8 4.6 36.9 14.3l-11.5 10.7c-6.9-7.4-15.1-11-25.4-11-15.5 0-20.5 5.9-20.5 9.8 0 4.6 5.2 7 18.6 10.3 1.9.5 12.5 3.5 14.5 3.9 18.4 4.6 26.4 12.3 26.4 23.9 0 13.1-11.2 25.4-38 25.4z" class="st0"/>
</g>
<g fill="#ed9121">
<path d="m65.1 1030h-9.4l.4.4v10h-4.1v-27.9h13.1c6.2 0 9.7 3.7 9.7 8.8 0 4.8-3.5 8.7-9.7 8.7zm0-13.7h-9.4l.4.4v9.1l-.4.4h9.4c3.7 0 5.4-2.1 5.4-5 0-3-1.6-4.9-5.4-4.9z" class="st1"/>
<path d="m125.1 1041h-4.6l-3.6-7.4c-1.3-2.6-3.2-3.8-6.7-3.8h-6.3l.4.4v10.8h-4.2v-27.9h12.7c5.3 0 9.8 2.8 9.8 8.4 0 3.4-2.4 6.1-5.2 7v.1c1.1.5 2.4 1.7 3.3 3.3l4.4 9.1zm-12.3-24.1h-8.9l.4.4v8.2l-.4.4h8.6c3.9 0 5.9-1.9 5.9-4.5 0-3.3-2.3-4.5-5.6-4.5z" class="st1"/>
<path d="m161.3 1041c-8.9 0-13.5-5.7-13.5-14.1s4.7-14.5 13.5-14.5c8.9 0 13.5 6 13.5 14.5 0 8.4-4.7 14.1-13.5 14.1zm0-24.8c-6.6 0-9.3 4.7-9.3 10.7 0 5.8 2.7 10.3 9.3 10.3 6.7 0 9.3-4.5 9.3-10.3s-2.6-10.7-9.3-10.7z" class="st1"/>
<path d="m211.7 1041h-11.1v-27.9h11c11.3 0 13.2 7.4 13.2 14 0 6.4-2 13.9-13.1 13.9zm-.5-24.1h-6.9l.4.4v19.4l-.4.4h7.1c8 0 9.2-4.6 9.2-10.1-.1-5.5-1.4-10.1-9.4-10.1z" class="st1"/>
<path d="m274.8 1028c0 8.5-3.9 13.2-12.2 13.2-8.4 0-12.3-4.6-12.3-13.2v-15.1h4.1v15.1c0 5.9 2.1 9.4 8.1 9.4 5.9 0 8.1-3.5 8.1-9.4v-15.1h4.1v15.1z" class="st1"/>
<path d="m322.2 1020c-1.8-2.3-4.1-3.5-7.8-3.5-7 0-9.9 4.7-9.9 10.7 0 5.8 2.8 10.3 9.9 10.3 3.7 0 6-1.2 7.9-3.6l3 2.9c-2.7 2.9-6.2 4.4-10.9 4.4-9.3 0-14.1-5.7-14.1-14.1s5-14.5 14.1-14.5c4.7 0 8.2 1.5 10.9 4.4l-3.1 3z" class="st1"/>
<path d="m354.4 1041h-4.1v-27.9h4.1v27.9z" class="st1"/>
<path d="m405.3 1041h-3.7l-14-18.1-1.9-3.2h-.1v21.2h-4.1v-27.9h3.7l14.1 18.1 1.9 3.1h.1v-21.2h4.1v28z" class="st1"/>
<path d="m457.3 1041h-3.6v-3.6h-.1c-1.8 2.4-5.1 3.9-8.7 3.9-9 0-14-5.4-14-14 0-8.8 5.2-14.6 14.2-14.6 4 0 8.1 1.1 11.1 4.2l-3 3c-2.1-2.6-5.1-3.4-8.1-3.4-6.8 0-10 4.1-10 10.8 0 6.4 3.1 10.2 9.8 10.2 5 0 8.4-3.5 8.5-8.2l.4-.4h-9.5v-3.8h12.9v15.9z" class="st1"/>
<path d="m526.7 1041h-11.1v-27.9h11c11.3 0 13.2 7.4 13.2 14 0 6.4-1.9 13.9-13.1 13.9zm-.5-24.1h-6.9l.4.4v19.4l-.4.4h7.1c8 0 9.2-4.6 9.2-10.1s-1.3-10.1-9.4-10.1z" class="st1"/>
<path d="m590.4 1041h-4.6l-3.6-7.4c-1.3-2.6-3.2-3.8-6.7-3.8h-6.3l.4.4v10.8h-4.1v-27.9h12.6c5.3 0 9.8 2.8 9.8 8.4 0 3.4-2.4 6.1-5.2 7v.1c1.1.5 2.4 1.7 3.3 3.3l4.4 9.1zm-12.3-24.1h-8.9l0.4.4v8.2l-0.4.4h8.6c3.9 0 5.9-1.9 5.9-4.5 0-3.3-2.3-4.5-5.6-4.5z" class="st1"/>
<path d="m635.8 1041h-21.4v-27.9h21.4v3.8h-17.7l.4.4v7.4l-.4.4h16v3.8h-16l.4.4v7.4l-.4.4h17.6v3.9z" class="st1"/>
<path d="m688.7 1041h-4.5l-2.9-6.5.2-.4h-14.9l.2.4-2.9 6.5h-4.5l12.7-27.9h4l12.6 27.9zm-9.1-10.7-0.4-.4-4.3-9.5-0.8-2.6h-.1l-.8 2.5-4.3 9.5-.4.4h11.1z" class="st1"/>
<path d="m741.3 1041h-4.2v-18.9l-1.5 3.7-8.4 15.6h-.1l-8.4-15.7-1.4-3.5h-.1v18.9h-4.1v-27.9h3.5l9.2 17.4 1.4 3.3h.1l1.3-3.3 9.2-17.4h3.5v27.8z" class="st1"/>
<path d="m779.3 1041c-4.6 0-9.3-1.4-12.5-4.8l3.1-3c3.2 2.8 5.9 3.9 9.3 3.9 5.1 0 7.4-1.9 7.4-4.1 0-1.6-1.3-3.2-5.1-4.1-.6-.2-4.5-1.2-5.1-1.3-5.1-1.4-8.8-3.2-8.8-7.5 0-4.1 3.7-7.8 11.4-7.8 4.5 0 8.4 1.6 11.2 4.5l-3 3c-2-2.3-4.6-3.7-8.1-3.7-5.2 0-7.1 1.9-7.1 3.8 0 1.7 1.7 2.7 6.4 4 .6.1 3.9 1 4.5 1.2 5.6 1.4 8.1 4.3 8.1 7.7-.2 4.2-3.4 8.2-11.7 8.2z" class="st1"/>
<g transform="translate(-3.9 256.1)">
<path d="m421.7 7.7c-28.5 0-51.5 25.6-51.5 57.3 0 15.9 12.3 35.9 20.5 51.9 6.9 13.3 6.3 28.3 20.9 32.7 2.4.6 6.3 1 10.1 1.1 3.8-.1 7.7-.5 10.1-1.1 14.6-4.4 14-19.4 20.9-32.7 8.2-16 20.5-36 20.5-51.9 0-31.6-23-57.3-51.5-57.3zm4.9 15.7c-25 0-45.3 22.6-45.3 50.4 0 1.1.1 2.3.2 3.5-1.7-4.9-2.9-9.7-2.9-14.1 0-26.6 19.4-48.2 43.4-48.2 16.2 0 30.2 9.8 37.7 24.4-8.3-9.8-20-16-33.1-16z" class="st1" fill="#ed9121"/>
</g>
</g>
<path d="m491.1 458.7v-35.7h27.4v-28.9h-58v28.9 58l10.8 3.3c76.2 23.5 127.4 93 127.4 172.8 0 69.9-40.9 134.2-104.3 163.9l-15.7 7.3 6.4 10.2h-134.6l6.4-10.2-15.7-7.3c-63.4-29.7-104.3-94-104.3-163.9 0-79.8 51.2-149.3 127.4-172.8l10.8-3.3v-58-28.9h-58v28.9h27.4v35.7c-83.1 30.5-138.2 108.9-138.2 198.4 0 77.7 43.3 149.6 111.3 186.2 1 14.4 13 25.8 27.7 25.8h145.1c14.6 0 26.7-11.4 27.7-25.8 68-36.7 111.3-108.5 111.3-186.2-.1-89.5-55.2-167.9-138.3-198.4z" class="st0" fill="#39538d"/>
<g fill="#ed9121">
<path d="m342.5 664c1.9.5 5 .8 8 .9 3.1-.1 6.1-.4 8-.9 11.6-3.5 11.1-15.4 16.6-25.9 6.5-12.7 16.3-28.5 16.3-41.1 0-25.1-18.3-45.4-40.9-45.4s-40.9 20.3-40.9 45.4c0 12.6 9.7 28.4 16.3 41.1 5.5 10.6 5.1 22.4 16.6 25.9z" class="st1"/>
<path d="m421.1 547.9c1.2.3 3.1.5 4.9.5 1.9 0 3.7-.2 4.9-.5 7.1-2.2 6.8-9.4 10.2-15.9 4-7.8 10-17.5 10-25.2 0-15.4-11.2-27.8-25-27.8s-25 12.5-25 27.8c0 7.7 6 17.4 10 25.2 3.2 6.5 2.9 13.7 10 15.9z" class="st1"/>
<path d="m566 623.1c-16.9 28.6-46.3 52.6-83.3 68.7.5-1.4 1.1-2.9 1.9-4.3 5.8-11.3 14.5-25.5 14.5-36.8 0-22.4-16.4-40.6-36.5-40.6-20.2 0-36.5 18.2-36.5 40.6 0 11.3 8.7 25.4 14.5 36.8 3 5.7 4 11.9 6.7 16.6-23 6.1-47.9 9.5-74 9.5-38 0-73.6-7.2-104.2-19.6 15.5 67.9 76.2 118.5 148.8 118.5 84.3 0 152.7-68.4 152.7-152.7-.1-12.7-1.7-25-4.6-36.7zm-237.6 116.7c-5.1 0-9.3-4.2-9.3-9.3s4.2-9.3 9.3-9.3 9.3 4.2 9.3 9.3-4.2 9.3-9.3 9.3zm63 28.5c-9.4 0-17-7.6-17-17s7.6-17 17-17 17 7.6 17 17-7.6 17-17 17zm39.6 19.1c-5.1 0-9.3-4.2-9.3-9.3s4.2-9.3 9.3-9.3 9.3 4.2 9.3 9.3-4.1 9.3-9.3 9.3zm41.9-32.5c-9.3 0-16.9-7.6-16.9-16.9s7.6-16.9 16.9-16.9 16.9 7.6 16.9 16.9c0 9.4-7.6 16.9-16.9 16.9zm51.6-53.9c-4.2 0-7.6-3.4-7.6-7.6s3.4-7.6 7.6-7.6 7.6 3.4 7.6 7.6-3.4 7.6-7.6 7.6z" class="st1"/>
<path d="m399.6 409.3c10.3 4.7 31.3 4.7 37.1-1.6 2.7 14.6-6 23.7-22.9 22.2 10.8-2.7 16.3-8.8 16.4-13.2-9.8 3.7-27.1 3.2-30.6-7.4z" class="st1"/>
</g>
</g>
</svg>
