<?xml version="1.0" standalone="no"?>
<!DOCTYPE svg PUBLIC "-//W3C//DTD SVG 20010904//EN"
 "http://www.w3.org/TR/2001/REC-SVG-20010904/DTD/svg10.dtd">
<svg version="1.0" xmlns="http://www.w3.org/2000/svg"
 width="610.000000pt" height="610.000000pt" viewBox="0 0 610.000000 610.000000"
 preserveAspectRatio="xMidYMid meet">
<metadata>
Created by potrace 1.11, written by Peter Selinger 2001-2013
</metadata>
<g transform="translate(0.000000,610.000000) scale(0.100000,-0.100000)"
fill="#000000" stroke="none">
<path d="M2980 6070 c-183 -31 -339 -171 -407 -367 -23 -67 -27 -94 -27 -188
0 -131 11 -164 136 -410 74 -146 122 -258 135 -310 9 -40 59 -99 103 -122 40
-22 55 -24 140 -21 158 5 196 38 264 232 20 54 40 104 45 110 37 47 175 351
190 421 8 38 7 158 -1 211 -24 146 -139 312 -268 387 -85 49 -215 72 -310 57z
m142 -74 c96 -10 214 -88 280 -185 l32 -46 -49 44 c-205 179 -490 134 -652
-104 -37 -54 -71 -157 -79 -240 l-8 -70 -11 51 c-45 195 66 424 250 514 53 27
153 51 180 44 6 -2 31 -5 57 -8z"/>
<path d="M2058 4769 c-9 -6 -12 -91 -9 -249 l1 -36 131 1 c72 0 132 -3 135 -7
3 -4 5 -58 5 -120 0 -226 0 -238 -14 -238 -33 0 -305 -137 -413 -208 -394
-259 -689 -637 -837 -1073 -88 -256 -117 -448 -112 -729 2 -102 6 -200 9 -218
3 -18 8 -52 11 -75 28 -198 122 -476 226 -669 45 -82 141 -235 175 -278 188
-236 392 -418 611 -545 46 -26 80 -51 78 -56 -12 -19 39 -122 81 -164 86 -84
37 -80 919 -80 729 0 783 1 827 18 82 32 166 133 171 207 2 24 13 35 67 67
553 321 933 890 1032 1543 14 96 17 419 5 525 -73 620 -407 1167 -923 1515
-114 77 -265 157 -381 201 -62 24 -63 24 -64 64 0 39 0 275 1 305 0 14 20 16
135 15 l135 -1 1 41 c2 120 -1 238 -6 243 -3 3 -131 6 -286 6 -272 1 -280 0
-284 -19 -3 -11 -4 -206 -2 -434 l2 -415 137 -46 c479 -163 848 -486 1061
-930 48 -100 107 -258 122 -327 3 -13 7 -32 10 -43 11 -46 15 -66 30 -155 23
-142 23 -364 -1 -525 -37 -245 -136 -507 -274 -719 -192 -296 -443 -511 -783
-671 -64 -30 -117 -58 -117 -63 0 -4 11 -25 25 -47 14 -22 25 -42 25 -45 0 -3
-302 -5 -670 -5 l-671 0 31 45 c17 25 28 50 25 55 -3 6 -27 20 -53 31 -321
144 -544 312 -743 559 -177 220 -316 526 -364 802 -3 16 -7 40 -10 55 -9 47
-19 194 -19 273 0 173 24 330 78 525 2 6 6 17 9 25 3 8 11 33 17 55 41 135
212 432 322 559 119 137 307 297 444 378 106 62 245 124 374 168 l135 46 2
432 c2 400 1 432 -15 433 -82 4 -546 3 -554 -2z"/>
<path d="M3205 4613 c-43 -23 -195 -29 -267 -10 -32 8 -58 12 -58 8 0 -17 39
-52 75 -67 43 -18 147 -20 188 -5 68 26 20 -51 -60 -97 l-58 -33 45 6 c102 13
149 47 169 120 13 46 14 95 4 95 -5 -1 -21 -8 -38 -17z"/>
<path d="M3093 3920 c-85 -19 -168 -100 -193 -190 -24 -85 -11 -141 64 -290
18 -36 39 -84 46 -105 27 -84 66 -111 146 -102 56 6 78 26 103 91 11 28 38 88
60 132 57 114 70 155 66 212 -12 160 -153 282 -292 252z"/>
<path d="M2303 3190 c-170 -34 -305 -199 -328 -400 -10 -86 12 -161 96 -329
42 -86 91 -193 108 -238 49 -126 87 -155 203 -154 120 0 156 30 207 169 17 45
53 124 81 176 137 256 151 377 65 553 -83 168 -256 257 -432 223z"/>
<path d="M3452 2608 c-126 -19 -241 -119 -288 -251 -48 -135 -32 -223 76 -437
56 -110 114 -250 104 -250 -2 0 -44 -9 -92 -19 -102 -23 -131 -29 -192 -37
-25 -3 -54 -8 -65 -10 -101 -19 -525 -26 -675 -12 -212 22 -464 77 -644 142
-55 20 -101 34 -104 31 -8 -7 62 -213 98 -290 80 -169 196 -331 326 -455 242
-230 478 -348 834 -415 61 -11 342 -14 415 -4 453 64 834 301 1082 674 93 140
168 306 207 460 20 79 22 92 42 235 5 37 5 261 0 290 -3 14 -7 43 -10 65 -3
22 -10 64 -16 94 -5 29 -10 56 -10 59 0 2 -28 -35 -62 -84 -113 -160 -330
-356 -512 -463 -77 -45 -249 -132 -253 -127 -2 2 27 67 65 144 40 81 74 164
80 198 25 128 -18 265 -111 358 -86 86 -184 120 -295 104z m705 -761 c40 -14
52 -76 20 -113 -47 -54 -127 -25 -127 46 0 60 44 88 107 67z m-438 -390 c39
-36 59 -91 51 -141 -13 -84 -69 -138 -157 -150 -50 -7 -124 35 -152 84 -94
167 117 336 258 207z m-1516 31 c33 -17 46 -39 46 -78 1 -91 -110 -125 -165
-52 -7 9 -14 33 -14 53 0 68 72 110 133 77z m666 -139 c43 -26 55 -38 75 -76
60 -118 -52 -260 -187 -238 -84 14 -156 126 -132 207 32 106 156 161 244 107z
m362 -333 c9 -4 24 -22 34 -40 15 -28 16 -38 6 -68 -15 -45 -29 -57 -75 -65
-31 -5 -40 -1 -71 30 -31 31 -35 40 -30 69 12 68 72 100 136 74z"/>
</g>
</svg>
